<?xml version="1.0" encoding="utf-8"?>
<!-- Generator: Adobe Illustrator 19.2.1, SVG Export Plug-In . SVG Version: 6.00 Build 0)  -->
<svg version="1.1" id="Capa_1" xmlns="http://www.w3.org/2000/svg" xmlns:xlink="http://www.w3.org/1999/xlink" x="0px" y="0px"
	 viewBox="0 0 283.5 69.4" enable-background="new 0 0 283.5 69.4" xml:space="preserve">
<g id="BSC_Logo_2_">
	<g>
		<g>
			<path fill="#FFFFFF" d="M91.2,9.2h5c2.1,0,2.9,0.7,2.9,2.1c0,1.2-0.6,2-1.8,2.3h0v0c0.9,0.2,1.5,1,1.5,1.9c0,2.3-1.9,3.3-4,3.3
				h-5.6L91.2,9.2z M92.6,16.7h1.9c0.5,0,1.3-0.2,1.3-1c0-0.7-0.5-0.8-1.2-0.8H93L92.6,16.7z M93.3,13H95c0.5,0,1.1-0.2,1.1-0.8
				c0-0.6-0.4-0.7-0.9-0.7h-1.5L93.3,13z"/>
			<path fill="#FFFFFF" d="M100.2,14c0.4-1.9,1.9-2.3,3.6-2.3c1.3,0,3.4,0.2,3.4,1.9c0,1.1-0.9,4.3-0.9,4.7c0.1,0.5,0,0.3,0.1,0.6
				h-2.6c-0.1-0.2-0.1-0.5-0.1-0.7h0c-0.5,0.6-1.4,0.9-2.2,0.9c-1.2,0-2.3-0.5-2.3-1.9c0-1.9,1.4-2.4,3.4-2.5c0.8-0.1,2,0.1,2-0.8
				c0-0.5-0.4-0.6-0.8-0.6c-0.5,0-0.9,0.2-1.1,0.7H100.2z M102.8,17.6c0.9,0,1.3-0.7,1.4-1.7c-0.4,0.2-0.9,0.3-1.4,0.3
				c-0.5,0-0.9,0.3-0.9,0.8C102,17.4,102.4,17.6,102.8,17.6z"/>
			<path fill="#FFFFFF" d="M109.2,11.9h2.6l-0.2,1.1h0c0.5-0.7,1.4-1.3,2.1-1.3c0.5,0,0.7,0,1,0.1l-0.5,2.4c-0.3-0.1-0.7-0.2-1-0.2
				c-1.1,0-1.7,0.5-2,2l-0.6,3h-2.7L109.2,11.9z"/>
			<path fill="#FFFFFF" d="M119.3,14.6c0-0.3,0-0.6-0.2-0.7c-0.1-0.2-0.4-0.2-0.7-0.2c-1.2,0-1.5,1.5-1.5,2.2c0,0.7,0.1,1.3,0.9,1.3
				c0.7,0,1-0.6,1.2-1h2.6c-0.5,2-1.8,3-3.8,3c-3,0-3.6-1.9-3.6-3.2c0-2.4,1.6-4.2,4.3-4.2c2,0,3.4,0.9,3.4,2.9H119.3z"/>
			<path fill="#FFFFFF" d="M129.5,16.9c-0.2,0.5-0.7,2.2-3.8,2.2c-2.5,0-3.5-1.4-3.5-3.1c0-3.2,2.5-4.3,4.2-4.3
				c1.6,0,3.5,0.9,3.5,3.1c0,0.4,0,0.8-0.1,1.2h-5c0,0.7,0.3,1.4,1.1,1.4c0.6,0,0.9-0.3,1.1-0.5H129.5L129.5,16.9z M127.4,14.6
				c0-0.1,0-0.2,0-0.2c0-0.5-0.3-1-1-1c-0.7,0-1.2,0.4-1.4,1.2H127.4L127.4,14.6z"/>
			<polygon fill="#FFFFFF" points="132.5,9.2 135.2,9.2 133.2,19 130.5,19 			"/>
			<path fill="#FFFFFF" d="M139.5,11.7c2.1,0,3.4,1,3.4,3.1c0,1.8-1,4.3-4.3,4.3c-1.9,0-3.5-0.9-3.5-3.3
				C135.1,13.6,136.6,11.7,139.5,11.7z M138.8,17.2c1.1,0,1.4-1.6,1.4-2.2c0-0.8-0.2-1.3-0.9-1.3c-1.1,0-1.5,1.6-1.5,2.4
				C137.8,16.6,138,17.2,138.8,17.2z"/>
			<path fill="#FFFFFF" d="M144.8,11.9h2.6l-0.2,0.9h0c0.5-0.6,1.3-1.1,2.2-1.1c1.2,0,2.3,0.5,2.3,1.9c0,0.3-0.1,0.8-0.2,1.3l-0.9,4
				H148l0.7-3.2c0.1-0.4,0.2-0.9,0.2-1.2c0-0.4-0.3-0.7-0.8-0.7c-0.9,0-1.1,0.6-1.3,1.3L146,19h-2.7L144.8,11.9z"/>
			<path fill="#FFFFFF" d="M153.2,14c0.4-1.9,1.9-2.3,3.6-2.3c1.3,0,3.4,0.2,3.4,1.9c0,1.1-0.9,4.3-0.9,4.7c0.1,0.5,0,0.3,0.1,0.6
				h-2.6c-0.1-0.2-0.1-0.5-0.1-0.7h0c-0.5,0.6-1.4,0.9-2.2,0.9c-1.2,0-2.3-0.5-2.3-1.9c0-1.9,1.4-2.4,3.4-2.5c0.8-0.1,2,0.1,2-0.8
				c0-0.5-0.4-0.6-0.8-0.6c-0.5,0-0.9,0.2-1.1,0.7H153.2z M155.8,17.6c0.9,0,1.3-0.7,1.4-1.7c-0.4,0.2-0.9,0.3-1.4,0.3
				c-0.5,0-0.9,0.3-0.9,0.8C154.9,17.4,155.3,17.6,155.8,17.6z"/>
			<path fill="#FFFFFF" d="M95.5,27.8c0-0.4-0.1-0.6-0.3-0.8c-0.2-0.2-0.5-0.2-0.9-0.2c-0.5,0-1.2,0.2-1.2,0.8
				c0,0.7,1.5,0.8,2.4,1.1c1.7,0.6,2.3,1.5,2.3,2.7c0,2.3-2.3,3.4-4.4,3.4c-2.2,0-4.2-1-4.1-3.5h2.9c0,0.5,0.1,0.9,0.4,1.1
				c0.3,0.2,0.6,0.2,1.1,0.2c0.6,0,1.3-0.3,1.3-0.9c0-0.7-1-0.8-2.3-1.3c-1.2-0.4-2.3-1-2.3-2.6c0-2.2,2.1-3.2,4.1-3.2
				c2.1,0,3.9,0.8,3.9,3.2H95.5L95.5,27.8z"/>
			<path fill="#FFFFFF" d="M105.5,34.6h-2.6l0.2-0.9h0c-0.6,0.7-1.4,1.1-2.3,1.1c-1.2,0-2.2-0.5-2.2-1.9c0-0.6,0.2-1.5,1-5.4h2.7
				l-0.8,3.7c-0.1,0.4-0.1,0.7-0.1,0.7c0,0.4,0.4,0.7,0.8,0.7c1.2,0,1.3-1.3,1.5-2.2l0.6-2.9h2.7L105.5,34.6z"/>
			<path fill="#FFFFFF" d="M108.5,27.5h2.6l-0.2,0.8h0c0.5-0.7,1.1-1,1.9-1c2,0,2.6,1.6,2.6,2.9c0,2.1-1,4.5-3.4,4.5
				c-0.8,0-1.5-0.1-2.1-1l-0.6,3.1h-2.7L108.5,27.5z M112.7,30.6c0-0.7-0.2-1.3-1-1.3c-1.2,0-1.4,1.7-1.4,2.3c0,0.3,0.1,1.2,1,1.2
				C112.4,32.8,112.7,31.5,112.7,30.6z"/>
			<path fill="#FFFFFF" d="M123.5,32.5c-0.2,0.5-0.7,2.2-3.8,2.2c-2.5,0-3.5-1.4-3.5-3.1c0-3.2,2.5-4.3,4.2-4.3
				c1.6,0,3.5,0.9,3.5,3.1c0,0.4,0,0.8-0.1,1.2h-5c0,0.7,0.3,1.4,1.1,1.4c0.6,0,0.9-0.3,1.1-0.5L123.5,32.5L123.5,32.5z M121.4,30.2
				c0-0.1,0-0.2,0-0.2c0-0.5-0.3-1-1-1c-0.7,0-1.2,0.4-1.4,1.2H121.4z"/>
			<path fill="#FFFFFF" d="M125.9,27.5h2.6l-0.2,1.1h0c0.5-0.7,1.4-1.3,2.1-1.3c0.4,0,0.7,0,1,0.1l-0.5,2.4c-0.3-0.1-0.7-0.2-1-0.2
				c-1.1,0-1.7,0.5-2,2l-0.6,3h-2.7L125.9,27.5z"/>
			<path fill="#FFFFFF" d="M135.9,30.2c0-0.3,0-0.6-0.2-0.7c-0.1-0.2-0.4-0.2-0.7-0.2c-1.2,0-1.5,1.5-1.5,2.2s0.2,1.3,0.9,1.3
				c0.7,0,1-0.6,1.2-1h2.6c-0.5,2-1.8,3-3.8,3c-3,0-3.6-1.9-3.6-3.2c0-2.4,1.6-4.2,4.3-4.2c2,0,3.4,0.9,3.4,2.9H135.9z"/>
			<path fill="#FFFFFF" d="M143.3,27.3c2.1,0,3.4,1,3.4,3.1c0,1.8-1,4.3-4.3,4.3c-1.9,0-3.5-0.9-3.5-3.3
				C138.9,29.2,140.4,27.3,143.3,27.3z M142.5,32.8c1.1,0,1.4-1.6,1.4-2.2c0-0.8-0.2-1.3-0.9-1.3c-1.1,0-1.5,1.6-1.5,2.4
				C141.6,32.2,141.8,32.8,142.5,32.8z"/>
			<path fill="#FFFFFF" d="M148.6,27.5h2.6l-0.2,0.9h0c0.5-0.7,1.3-1.1,2.2-1.1c0.9,0,1.7,0.3,1.9,1.2c0.6-0.7,1.4-1.2,2.3-1.2
				c1.4,0,2.3,0.6,2.3,2.1c0,0.3-0.1,0.8-0.2,1.1l-0.9,4H156l0.7-3.4c0-0.1,0.2-0.8,0.2-1c0-0.4-0.3-0.7-0.7-0.7
				c-0.5,0-0.9,0.3-1,0.8l-0.9,4.3h-2.7l0.8-3.8c0-0.2,0.1-0.5,0.1-0.7c0-0.4-0.2-0.7-0.7-0.7c-0.7,0-1,0.4-1.1,1l-0.9,4h-2.7
				L148.6,27.5z"/>
			<path fill="#FFFFFF" d="M161.7,27.5h2.6l-0.2,0.8h0c0.5-0.7,1.1-1,1.9-1c2,0,2.6,1.6,2.6,2.9c0,2.1-1,4.5-3.4,4.5
				c-0.8,0-1.5-0.1-2.1-1l-0.6,3.1h-2.7L161.7,27.5z M165.9,30.6c0-0.7-0.2-1.3-1-1.3c-1.2,0-1.4,1.7-1.4,2.3c0,0.3,0.1,1.2,1,1.2
				C165.6,32.8,165.9,31.5,165.9,30.6z"/>
			<path fill="#FFFFFF" d="M176.3,34.6h-2.6l0.2-0.9h0c-0.6,0.7-1.4,1.1-2.3,1.1c-1.2,0-2.2-0.5-2.2-1.9c0-0.6,0.2-1.5,1-5.4h2.7
				l-0.8,3.7c-0.1,0.4-0.1,0.7-0.1,0.7c0,0.4,0.4,0.7,0.8,0.7c1.2,0,1.3-1.3,1.5-2.2l0.6-2.9h2.7L176.3,34.6z"/>
			<path fill="#FFFFFF" d="M182.4,27.5h1.5l-0.4,1.7h-1.4l-0.5,2.3c-0.1,0.2-0.1,0.5-0.1,0.7c0,0.2,0.1,0.4,0.5,0.4
				c0.4,0,0.7,0,0.9,0l-0.4,1.9c-0.5,0.1-1,0.1-1.5,0.2c-0.6,0-1.2,0-1.7-0.3c-0.5-0.3-0.7-0.8-0.7-1.3c0-0.4,0.1-0.6,0.1-1l0.6-2.9
				h-1.2l0.4-1.7h1.2l0.5-2.1h2.7L182.4,27.5z"/>
			<path fill="#FFFFFF" d="M184.9,27.5h2.7l-1.5,7.1h-2.7L184.9,27.5z M187.8,26.8h-2.7l0.4-1.9h2.7L187.8,26.8z"/>
			<path fill="#FFFFFF" d="M189.1,27.5h2.6l-0.2,0.9h0c0.5-0.6,1.3-1.1,2.2-1.1c1.2,0,2.3,0.5,2.3,1.9c0,0.3-0.1,0.8-0.2,1.3l-0.9,4
				h-2.7l0.7-3.2c0.1-0.4,0.2-0.9,0.2-1.2c0-0.4-0.3-0.7-0.8-0.7c-0.9,0-1.1,0.6-1.3,1.3l-0.8,3.7h-2.7L189.1,27.5z"/>
			<path fill="#FFFFFF" d="M203.9,33.4c-0.4,2-0.8,3.7-4.2,3.7c-0.8,0-3.4-0.1-3.3-2.4h2.7c0,0.3,0.1,0.5,0.2,0.6
				c0.1,0.1,0.4,0.2,0.6,0.2c0.8,0,1-0.6,1.2-1.3l0.2-0.7h0c-0.4,0.5-1,0.7-1.7,0.7c-1.7,0-2.8-1.1-2.8-2.7c0-2,1.2-4.1,3.4-4.1
				c0.9,0,1.7,0.3,2.1,1.1h0l0.2-0.9h2.6L203.9,33.4z M199.4,31.3c0,0.6,0.3,1.1,0.9,1.1c1.3,0,1.5-1.5,1.5-2c0-0.4,0-1.1-1-1.1
				C199.8,29.3,199.4,30.5,199.4,31.3z"/>
			<path fill="#FFFFFF" d="M99,46.5c-0.2,1-0.9,3.9-5,3.9c-2.8,0-4.2-1.8-4.2-4.4c0-3.1,2-5.8,5.3-5.8c2.2,0,4.1,0.9,4.1,3.8h-2.8
				c0-0.9-0.4-1.4-1.3-1.4c-1.7,0-2.3,1.9-2.3,3.3c0,0.8,0.2,2.1,1.6,2.1c0.9,0,1.5-0.6,1.7-1.5H99L99,46.5z"/>
			<path fill="#FFFFFF" d="M107.1,48.1c-0.2,0.5-0.7,2.2-3.8,2.2c-2.5,0-3.5-1.4-3.5-3.1c0-3.2,2.5-4.3,4.2-4.3
				c1.6,0,3.5,0.9,3.5,3.1c0,0.4,0,0.8-0.1,1.2h-5c0,0.7,0.3,1.4,1.1,1.4c0.6,0,0.9-0.3,1.1-0.5H107.1z M105,45.9c0-0.1,0-0.2,0-0.2
				c0-0.5-0.3-1-1-1c-0.7,0-1.2,0.4-1.4,1.2H105z"/>
			<path fill="#FFFFFF" d="M109.5,43.1h2.6l-0.2,0.9h0c0.5-0.6,1.3-1.1,2.2-1.1c1.2,0,2.3,0.5,2.3,1.9c0,0.3-0.1,0.8-0.2,1.3l-0.9,4
				h-2.7l0.7-3.2c0.1-0.4,0.2-0.9,0.2-1.2c0-0.4-0.3-0.7-0.8-0.7c-0.9,0-1.1,0.6-1.3,1.3l-0.8,3.7H108L109.5,43.1z"/>
			<path fill="#FFFFFF" d="M121.4,43.1h1.5l-0.4,1.7h-1.4l-0.5,2.3c-0.1,0.2-0.1,0.5-0.1,0.7c0,0.2,0.1,0.4,0.5,0.4
				c0.4,0,0.7,0,0.9,0l-0.4,1.9c-0.5,0.1-1,0.2-1.5,0.2c-0.6,0-1.2,0-1.7-0.3c-0.5-0.3-0.7-0.8-0.7-1.3c0-0.4,0.1-0.6,0.2-1l0.6-2.9
				h-1.2l0.4-1.7h1.2l0.5-2.1h2.7L121.4,43.1z"/>
			<path fill="#FFFFFF" d="M130,48.1c-0.2,0.5-0.7,2.2-3.8,2.2c-2.5,0-3.5-1.4-3.5-3.1c0-3.2,2.5-4.3,4.2-4.3c1.6,0,3.5,0.9,3.5,3.1
				c0,0.4,0,0.8-0.1,1.2h-5c0,0.7,0.3,1.4,1.1,1.4c0.6,0,0.9-0.3,1.1-0.5H130z M127.9,45.9c0-0.1,0-0.2,0-0.2c0-0.5-0.3-1-1-1
				c-0.7,0-1.2,0.4-1.4,1.2H127.9z"/>
			<path fill="#FFFFFF" d="M132.4,43.1h2.6l-0.2,1.1h0c0.5-0.8,1.4-1.3,2.1-1.3c0.4,0,0.7,0,1,0.1l-0.5,2.4c-0.3-0.1-0.7-0.2-1-0.2
				c-1.1,0-1.7,0.5-2,2l-0.6,3H131L132.4,43.1z"/>
			<path fill="#FFFFFF" d="M96.8,60.5c-0.4,1.8-1.6,2.9-3.5,2.9c-2.2,0-3.4-1.3-3.4-3.5c0-2.6,1.7-4.9,4.4-4.9c1.7,0,3,0.9,3,2.8
				h-1.1c0-1.3-0.8-1.9-2-1.9c-2.2,0-3.3,2-3.3,4c0,1.5,0.8,2.6,2.4,2.6c1.3,0,2.1-0.8,2.5-2H96.8L96.8,60.5z"/>
			<path fill="#FFFFFF" d="M98.6,60.6c0,0.2,0,0.3,0,0.5c0,0.9,0.7,1.4,1.5,1.4c0.8,0,1.4-0.4,1.7-1.1h1c-0.3,1.3-1.4,1.9-2.6,1.9
				c-1.9,0-2.5-1.3-2.5-2.3c0-2.2,1.4-3.7,3-3.7c1.7,0,2.5,0.9,2.5,2.6c0,0.3-0.1,0.6-0.1,0.8L98.6,60.6L98.6,60.6z M102.1,59.7
				c0.1-0.8-0.3-1.6-1.4-1.6c-1.1,0-1.7,0.7-2,1.6H102.1z"/>
			<path fill="#FFFFFF" d="M104.6,57.4h0.9l-0.2,0.9h0c0.5-0.6,1.3-1,2.1-1c1.1,0,1.6,0.5,1.6,1.5c0,0.2-0.1,0.7-0.2,1.1l-0.7,3.3
				h-1l0.7-3.4c0-0.2,0.1-0.7,0.1-0.9c0-0.5-0.4-0.8-1-0.8c-0.5,0-1.1,0.3-1.4,0.7c-0.3,0.3-0.5,0.7-0.6,1.2l-0.7,3.2h-0.9
				L104.6,57.4z"/>
			<path fill="#FFFFFF" d="M112.2,57.4h1.2l-0.2,0.8H112l-0.7,3.4c0,0.1,0,0.2,0,0.4c0,0.3,0.3,0.4,0.6,0.4c0.2,0,0.4,0,0.5-0.1
				l-0.2,0.9c-0.2,0-0.4,0.1-0.7,0.1c-0.7,0-1.3-0.2-1.3-0.9c0-0.2,0-0.3,0.1-0.5l0.8-3.6h-1l0.2-0.8h1l0.4-1.7h1L112.2,57.4z"/>
			<path fill="#FFFFFF" d="M114.4,57.4h0.9l-0.3,1.2h0c0.4-0.8,1.1-1.4,2.1-1.4c0.1,0,0.2,0,0.3,0l-0.2,1c-0.1,0-0.2,0-0.3,0
				c-0.2,0-0.3,0-0.6,0.1c-0.5,0.1-0.9,0.5-1.2,0.9c-0.3,0.4-0.4,0.9-0.5,1.4l-0.5,2.6h-1L114.4,57.4z"/>
			<path fill="#FFFFFF" d="M120.4,57.3c1.5,0,2.4,0.9,2.4,2.4c0,1.9-1.2,3.7-3.2,3.7c-1.5,0-2.4-1-2.4-2.4
				C117.2,59,118.4,57.3,120.4,57.3z M119.7,62.5c1.4,0,2.2-1.6,2.2-2.7c0-0.9-0.5-1.6-1.5-1.6c-1.5,0-2.2,1.6-2.2,2.8
				C118.1,61.8,118.7,62.5,119.7,62.5z"/>
			<polygon fill="#FFFFFF" points="128.3,55.2 129.4,55.2 132.3,61.8 132.3,61.8 133.6,55.2 134.7,55.2 133,63.2 131.8,63.2 
				129,56.6 129,56.6 127.6,63.2 126.6,63.2 			"/>
			<path fill="#FFFFFF" d="M135.2,59.1c0.2-1.3,1.3-1.9,2.5-1.9c1.1,0,2.1,0.3,2.1,1.5c0,0.3-0.1,0.7-0.2,1.1l-0.4,1.6
				c0,0.2-0.2,0.6-0.2,0.8c0,0.3,0.1,0.4,0.3,0.4c0.1,0,0.2,0,0.3-0.1l-0.1,0.7c-0.1,0.1-0.4,0.1-0.6,0.1c-0.5,0-0.8-0.3-0.8-0.8
				l0,0c-0.4,0.5-1,0.8-1.9,0.8c-1,0-1.8-0.4-1.8-1.6c0-1.7,1.6-1.8,2.9-1.9c1-0.1,1.5-0.1,1.5-0.9c0-0.6-0.7-0.8-1.2-0.8
				c-0.7,0-1.4,0.3-1.6,1H135.2L135.2,59.1z M136.5,62.5c0.7,0,1.3-0.2,1.6-0.8c0.3-0.4,0.4-1,0.5-1.5h0c-0.4,0.2-1.2,0.3-1.9,0.4
				c-0.7,0.1-1.3,0.3-1.3,1.1C135.5,62.2,136,62.5,136.5,62.5z"/>
			<path fill="#FFFFFF" d="M145.1,59.2c0-0.7-0.5-1.1-1.2-1.1c-1.5,0-2.3,1.5-2.3,2.7c0,0.9,0.4,1.7,1.4,1.7c0.8,0,1.4-0.5,1.7-1.2
				h1c-0.3,1.3-1.3,2-2.6,2c-1.6,0-2.4-0.9-2.4-2.5c0-1.8,1.1-3.6,3.2-3.6c1.3,0,2.1,0.6,2.2,2H145.1z"/>
			<path fill="#FFFFFF" d="M147.6,57.4h1l-1.2,5.8h-1L147.6,57.4z M148.8,56.3h-1l0.2-1.2h1L148.8,56.3z"/>
			<path fill="#FFFFFF" d="M152.4,57.3c1.5,0,2.4,0.9,2.4,2.4c0,1.9-1.2,3.7-3.2,3.7c-1.5,0-2.4-1-2.4-2.4
				C149.1,59,150.3,57.3,152.4,57.3z M151.7,62.5c1.4,0,2.2-1.6,2.2-2.7c0-0.9-0.5-1.6-1.5-1.6c-1.5,0-2.2,1.6-2.2,2.8
				C150.1,61.8,150.6,62.5,151.7,62.5z"/>
			<path fill="#FFFFFF" d="M156.5,57.4h0.9l-0.2,0.9h0c0.5-0.6,1.3-1,2.1-1c1.1,0,1.6,0.5,1.6,1.5c0,0.2-0.1,0.7-0.2,1.1l-0.7,3.3
				h-1l0.7-3.4c0-0.2,0.1-0.7,0.1-0.9c0-0.5-0.4-0.8-1-0.8c-0.5,0-1.1,0.3-1.4,0.7c-0.3,0.3-0.5,0.7-0.6,1.2l-0.7,3.2h-1L156.5,57.4
				z"/>
			<path fill="#FFFFFF" d="M162.2,59.1c0.2-1.3,1.3-1.9,2.5-1.9c1.1,0,2.1,0.3,2.1,1.5c0,0.3-0.1,0.7-0.2,1.1l-0.4,1.6
				c0,0.2-0.2,0.6-0.2,0.8c0,0.3,0.1,0.4,0.3,0.4c0.1,0,0.2,0,0.3-0.1l-0.1,0.7c-0.1,0.1-0.4,0.1-0.6,0.1c-0.5,0-0.8-0.3-0.8-0.8
				l0,0c-0.4,0.5-1,0.8-1.9,0.8c-1,0-1.8-0.4-1.8-1.6c0-1.7,1.6-1.8,2.9-1.9c1-0.1,1.5-0.1,1.5-0.9c0-0.6-0.7-0.8-1.2-0.8
				c-0.7,0-1.4,0.3-1.6,1H162.2L162.2,59.1z M163.5,62.5c0.7,0,1.3-0.2,1.6-0.8c0.3-0.4,0.4-1,0.5-1.5h0c-0.4,0.2-1.2,0.3-1.9,0.4
				c-0.7,0.1-1.3,0.3-1.3,1.1C162.4,62.2,162.9,62.5,163.5,62.5z"/>
			<polygon fill="#FFFFFF" points="169,55.2 170,55.2 168.3,63.2 167.4,63.2 			"/>
			<path fill="#FFFFFF" d="M178.1,63.2h-0.9l0.2-0.8h0c-0.6,0.8-1.1,1-1.9,1c-1.5,0-2.3-1-2.3-2.4c0-1.8,1.2-3.7,3.2-3.7
				c0.7,0,1.6,0.2,1.8,1h0l0.6-3.1h0.9L178.1,63.2z M175.7,62.5c1.4,0,2.3-1.7,2.3-2.9c0-0.9-0.5-1.5-1.5-1.5
				c-1.5,0-2.3,1.6-2.3,2.8C174.2,61.9,174.6,62.5,175.7,62.5z"/>
			<path fill="#FFFFFF" d="M180.8,60.6c0,0.2,0,0.3,0,0.5c0,0.9,0.7,1.4,1.5,1.4c0.8,0,1.4-0.4,1.7-1.1h1c-0.3,1.3-1.4,1.9-2.6,1.9
				c-1.9,0-2.5-1.3-2.5-2.3c0-2.2,1.4-3.7,3-3.7c1.7,0,2.5,0.9,2.5,2.6c0,0.3-0.1,0.6-0.1,0.8L180.8,60.6L180.8,60.6z M184.3,59.7
				c0.1-0.8-0.3-1.6-1.4-1.6c-1.1,0-1.7,0.7-2,1.6H184.3z"/>
			<path fill="#FFFFFF" d="M194.6,57.5c0-1.3-0.7-1.7-1.8-1.7c-0.8,0-1.8,0.4-1.8,1.3c0,0.8,0.6,1.1,1.3,1.3l1.1,0.3
				c1,0.3,1.9,0.7,1.9,2.2c0,1.6-1.7,2.4-3.1,2.4c-1.9,0-3.3-0.9-3.2-2.8h1.1c-0.1,1.4,0.8,1.9,2.1,1.9c1,0,2-0.5,2-1.5
				c0-0.8-0.6-1.1-1.4-1.3l-1.1-0.3c-1-0.3-1.8-0.8-1.8-2c0-1.5,1.5-2.3,2.9-2.3c1.6,0,3,0.8,2.9,2.6H194.6L194.6,57.5z"/>
			<path fill="#FFFFFF" d="M200.7,63.2h-0.9l0.2-0.9h0c-0.5,0.6-1.3,1-2.1,1c-1.1,0-1.6-0.5-1.6-1.5c0-0.3,0.1-0.7,0.2-1.1l0.7-3.3
				h1l-0.7,3.4c0,0.2-0.1,0.7-0.1,0.9c0,0.6,0.5,0.8,1,0.8c1.1,0,1.9-0.9,2.1-1.9l0.7-3.2h0.9L200.7,63.2z"/>
			<path fill="#FFFFFF" d="M203.4,57.4h0.9l-0.2,0.8h0c0.6-0.7,1.1-1,1.9-1c1.5,0,2.3,1,2.3,2.4c0,1.8-1.2,3.7-3.2,3.7
				c-0.7,0-1.6-0.2-1.8-1h0l-0.6,3.1h-0.9L203.4,57.4z M205.9,58.1c-1.4,0-2.3,1.7-2.3,2.9c0,0.9,0.5,1.5,1.5,1.5
				c1.5,0,2.3-1.6,2.3-2.8C207.4,58.7,206.9,58.1,205.9,58.1z"/>
			<path fill="#FFFFFF" d="M210,60.6c0,0.2,0,0.3,0,0.5c0,0.9,0.7,1.4,1.5,1.4c0.8,0,1.4-0.4,1.7-1.1h1c-0.3,1.3-1.4,1.9-2.6,1.9
				c-1.9,0-2.5-1.3-2.5-2.3c0-2.2,1.4-3.7,3-3.7c1.7,0,2.5,0.9,2.5,2.6c0,0.3-0.1,0.6-0.1,0.8L210,60.6L210,60.6z M213.5,59.7
				c0.1-0.8-0.3-1.6-1.4-1.6c-1.1,0-1.7,0.7-2,1.6H213.5z"/>
			<path fill="#FFFFFF" d="M216.1,57.4h0.9l-0.3,1.2h0c0.5-0.8,1.1-1.4,2.1-1.4c0.1,0,0.2,0,0.3,0l-0.2,1c-0.1,0-0.2,0-0.3,0
				c-0.2,0-0.3,0-0.6,0.1c-0.5,0.1-0.9,0.5-1.2,0.9c-0.3,0.4-0.4,0.9-0.5,1.4l-0.5,2.6h-1L216.1,57.4z"/>
			<path fill="#FFFFFF" d="M223.4,59.2c0-0.7-0.5-1.1-1.2-1.1c-1.5,0-2.3,1.5-2.3,2.7c0,0.9,0.4,1.7,1.4,1.7c0.8,0,1.4-0.5,1.7-1.2
				h1c-0.3,1.3-1.3,2-2.6,2c-1.6,0-2.4-0.9-2.4-2.5c0-1.8,1.1-3.6,3.2-3.6c1.3,0,2.1,0.6,2.2,2H223.4z"/>
			<path fill="#FFFFFF" d="M228.1,57.3c1.5,0,2.4,0.9,2.4,2.4c0,1.9-1.2,3.7-3.2,3.7c-1.5,0-2.4-1-2.4-2.4
				C224.9,59,226.1,57.3,228.1,57.3z M227.4,62.5c1.4,0,2.2-1.6,2.2-2.7c0-0.9-0.5-1.6-1.5-1.6c-1.5,0-2.2,1.6-2.2,2.8
				C225.9,61.8,226.4,62.5,227.4,62.5z"/>
			<path fill="#FFFFFF" d="M232.3,57.4h0.9l-0.2,0.9l0,0c0.5-0.6,1.2-1,2-1c0.7,0,1.3,0.3,1.5,1c0.4-0.6,1.2-1,2-1
				c0.8,0,1.6,0.4,1.6,1.3c0,0.3-0.1,0.8-0.2,1.2l-0.7,3.5h-1l0.8-3.7c0-0.2,0.1-0.5,0.1-0.6c0-0.4-0.4-0.8-0.9-0.8
				c-0.5,0-1.1,0.4-1.5,0.8c-0.3,0.3-0.4,0.8-0.5,1.3l-0.6,3h-1l0.7-3.3c0.1-0.4,0.2-0.9,0.2-1c0-0.5-0.3-0.8-0.8-0.8
				c-0.5,0-1.1,0.4-1.4,0.7c-0.4,0.4-0.5,0.7-0.6,1.3l-0.6,3h-1L232.3,57.4z"/>
			<path fill="#FFFFFF" d="M241.8,57.4h0.9l-0.2,0.8h0c0.6-0.7,1.1-1,1.9-1c1.5,0,2.3,1,2.3,2.4c0,1.8-1.2,3.7-3.2,3.7
				c-0.7,0-1.6-0.2-1.8-1h0l-0.6,3.1h-0.9L241.8,57.4z M244.3,58.1c-1.4,0-2.3,1.7-2.3,2.9c0,0.9,0.5,1.5,1.5,1.5
				c1.5,0,2.3-1.6,2.3-2.8C245.8,58.7,245.3,58.1,244.3,58.1z"/>
			<path fill="#FFFFFF" d="M251.9,63.2H251l0.2-0.9h0c-0.5,0.6-1.3,1-2.1,1c-1.1,0-1.6-0.5-1.6-1.5c0-0.3,0.1-0.7,0.2-1.1l0.7-3.3h1
				l-0.7,3.4c0,0.2-0.1,0.7-0.1,0.9c0,0.6,0.4,0.8,1,0.8c1.1,0,1.9-0.9,2.1-1.9l0.7-3.2h1L251.9,63.2z"/>
			<path fill="#FFFFFF" d="M256,57.4h1.2l-0.2,0.8h-1.2l-0.7,3.4c0,0.1,0,0.2,0,0.4c0,0.3,0.3,0.4,0.6,0.4c0.2,0,0.4,0,0.5-0.1
				l-0.2,0.9c-0.2,0-0.4,0.1-0.7,0.1c-0.7,0-1.3-0.2-1.3-0.9c0-0.2,0-0.3,0.1-0.5l0.8-3.6h-1l0.2-0.8h1l0.4-1.7h1L256,57.4z"/>
			<path fill="#FFFFFF" d="M257.7,59.1c0.2-1.3,1.3-1.9,2.5-1.9c1.1,0,2.1,0.3,2.1,1.5c0,0.3-0.1,0.7-0.2,1.1l-0.4,1.6
				c0,0.2-0.2,0.6-0.2,0.8c0,0.3,0.1,0.4,0.3,0.4c0.1,0,0.2,0,0.3-0.1l-0.1,0.7c-0.1,0.1-0.4,0.1-0.6,0.1c-0.5,0-0.8-0.3-0.8-0.8
				l0,0c-0.4,0.5-1,0.8-1.9,0.8c-1,0-1.8-0.4-1.8-1.6c0-1.7,1.6-1.8,2.9-1.9c1-0.1,1.5-0.1,1.5-0.9c0-0.6-0.7-0.8-1.2-0.8
				c-0.7,0-1.4,0.3-1.6,1H257.7L257.7,59.1z M259,62.5c0.7,0,1.3-0.2,1.6-0.8c0.3-0.4,0.4-1,0.5-1.5h0c-0.4,0.2-1.2,0.3-1.9,0.4
				c-0.7,0.1-1.3,0.3-1.3,1.1C257.9,62.2,258.5,62.5,259,62.5z"/>
			<path fill="#FFFFFF" d="M267.6,59.2c0-0.7-0.5-1.1-1.2-1.1c-1.5,0-2.3,1.5-2.3,2.7c0,0.9,0.4,1.7,1.4,1.7c0.8,0,1.4-0.5,1.7-1.2
				h1c-0.3,1.3-1.3,2-2.6,2c-1.6,0-2.4-0.9-2.4-2.5c0-1.8,1.1-3.6,3.2-3.6c1.3,0,2.1,0.6,2.2,2H267.6z"/>
			<path fill="#FFFFFF" d="M270.1,57.4h1l-1.2,5.8h-1L270.1,57.4z M271.3,56.3h-1l0.2-1.2h1L271.3,56.3z"/>
			<path fill="#FFFFFF" d="M274.9,57.3c1.5,0,2.4,0.9,2.4,2.4c0,1.9-1.2,3.7-3.2,3.7c-1.5,0-2.4-1-2.4-2.4
				C271.6,59,272.8,57.3,274.9,57.3z M274.2,62.5c1.4,0,2.2-1.6,2.2-2.7c0-0.9-0.5-1.6-1.5-1.6c-1.5,0-2.2,1.6-2.2,2.8
				C272.6,61.8,273.1,62.5,274.2,62.5z M275.7,55h1.3l-1.5,1.6h-0.8L275.7,55z"/>
			<path fill="#FFFFFF" d="M279,57.4h0.9l-0.2,0.9h0c0.5-0.6,1.3-1,2.1-1c1.1,0,1.6,0.5,1.6,1.5c0,0.2-0.1,0.7-0.2,1.1l-0.7,3.3h-1
				l0.7-3.4c0-0.2,0.1-0.7,0.1-0.9c0-0.5-0.4-0.8-1-0.8c-0.5,0-1.1,0.3-1.4,0.7c-0.3,0.3-0.5,0.7-0.6,1.2l-0.7,3.2h-1L279,57.4z"/>
		</g>
		<path fill="#FFFFFF" d="M44.6,4.7c2.7,0,8.5,1.3,10.6,1.9C33.4,5.4,19.6,20.2,19.6,37.2c0,12.1,7.2,25.4,24.6,29.4
			c-20.2,0.4-31.9-16.3-31.9-30.8C12.3,17.5,28.1,4.7,44.6,4.7z"/>
		<path fill="#FFFFFF" d="M32.9,0c3.6,0,8.2,1.2,11.5,2.2C43,2,40.7,2,39.9,2C19.7,2,7.6,19.7,7.6,36.1c0,14.1,7.8,29,26.6,33.3
			C12,69.9,0,50.4,0,34.6C0,16.2,14.6,0,32.9,0z"/>
		<path fill="#FFFFFF" d="M40,37h-2l-0.5,2.1h2.3c0.6,0,1.5-0.2,1.5-1.2C41.4,37.1,40.7,37,40,37z"/>
		<path fill="#FFFFFF" d="M51.8,9.1c-15.2,0-27.5,12.3-27.5,27.5c0,15.2,12.3,27.5,27.5,27.5c15.2,0,27.5-12.3,27.5-27.5
			C79.3,21.4,67,9.1,51.8,9.1z M44.9,38c0,2.8-2.2,3.9-4.7,3.9h-6.6l2.4-11.5h5.9c2.5,0,3.4,0.9,3.4,2.5c0,1.5-0.7,2.4-2.1,2.8h0v0
			C44.3,35.9,44.9,37,44.9,38z M53.9,34.9c2,0.7,2.7,1.8,2.7,3.2c0,2.8-2.7,4.1-5.2,4.1c-2.7,0-5-1.2-4.9-4.2h3.4
			c0,0.6,0.1,1,0.4,1.3c0.3,0.3,0.7,0.3,1.3,0.3c0.7,0,1.6-0.4,1.6-1.1c0-0.8-1.2-1-2.8-1.5c-1.4-0.5-2.8-1.2-2.8-3.1
			c0-2.6,2.5-3.8,4.8-3.8c2.5,0,4.7,0.9,4.6,3.8h-3.3c0-0.5-0.1-0.8-0.4-1c-0.3-0.2-0.6-0.3-1-0.3c-0.6,0-1.4,0.2-1.4,0.9
			C51,34.5,52.7,34.5,53.9,34.9z M64.1,39.3c1.1,0,1.7-0.8,2-1.8h3.5c-0.2,1.2-1.1,4.7-5.9,4.7c-3.3,0-5-2.2-5-5.2
			c0-3.7,2.3-6.8,6.3-6.8c2.6,0,4.9,1.1,4.9,4.6h-3.4c0-1.1-0.5-1.7-1.6-1.7c-2,0-2.7,2.3-2.7,3.9C62.3,37.8,62.5,39.3,64.1,39.3z"
			/>
		<path fill="#FFFFFF" d="M40.7,33.1h-1.8l-0.4,1.7h2c0.6,0,1.3-0.2,1.3-0.9C41.8,33.2,41.3,33.1,40.7,33.1z"/>
	</g>
</g>
</svg>
